# xmcd
#
# Track frame offsets: 
#        150
#        22599
#        42678
#        58100
#        88535
#        108881
#        145928
#        169668
#        189039
#        216634
#        235215
#        264030
#        285700
#        316379
#        336536
#
# Disc length: 4811 seconds
#
# Revision: 2
# Processed by: cddbd v1.5.2PL0 Copyright (c) Steve Scherf et al.
# Submitted via: ExactAudioCopy v0.95a5
#
DISCID=d412c90f
DTITLE=Various Artist - The Hard Blues Masters  CD-5      
DYEAR=2005
DGENRE=Rock
TTITLE0=Silence In the Valey - SNOWY WHITE
TTITLE1=Wild Streak - "Sir" OLIVER MALLY
TTITLE2=I'm Cryin' - JOHNNY GALE
TTITLE3=Obsession - INNES SIBUN
TTITLE4=Company Graveyard - The BUDDAH HEADS
TTITLE5=Full Moon on Main Street - ALBATROSS
TTITLE6=Red Moon Risin' - MICHAEL KATON
TTITLE7=Cold Black Night - GARY MOORE
TTITLE8=Hard As I Try - DAVE MENIKETTI
TTITLE9=Rocket in My Pocket - The HAMSTERS
TTITLE10=Standing About Crying - PAUL RODGERS
TTITLE11=Take Your Best Shot - SMOKIN' JOE KUBEK
TTITLE12=Deep. Deep Scar - The DUSTERS
TTITLE13=Exotic Dancer Blues - SOUTHERN GENTLEMEN
TTITLE14=Get It White You Can - GOTTHARD
EXTD=
EXTT0=
EXTT1=
EXTT2=
EXTT3=
EXTT4=
EXTT5=
EXTT6=
EXTT7=
EXTT8=
EXTT9=
EXTT10=
EXTT11=
EXTT12=
EXTT13=
EXTT14=
PLAYORDER=
